<svg width="1920" height="1248" viewBox="0 0 1920 1248" fill="none" xmlns="http://www.w3.org/2000/svg">
<g clip-path="url(#clip0_33_3)">
<path d="M134.44 83.6C133.4 84.8533 131.613 85.48 129.08 85.48C127.107 85.48 125.333 85.04 123.76 84.16C122.187 83.28 120.947 81.9867 120.04 80.28C119.133 78.5467 118.68 76.4133 118.68 73.88C118.68 71.32 119.147 69.1733 120.08 67.44C121.013 65.7067 122.24 64.4 123.76 63.52C125.307 62.64 126.973 62.2 128.76 62.2C129.587 62.2 130.427 62.3067 131.28 62.52C132.16 62.7067 132.96 63 133.68 63.4C134.427 63.8 134.96 64.3067 135.28 64.92V62.72H137.2V68.88C136.4 67.5733 135.507 66.5867 134.52 65.92C133.533 65.2267 132.547 64.76 131.56 64.52C130.573 64.2533 129.64 64.12 128.76 64.12C127.293 64.12 125.933 64.5067 124.68 65.28C123.453 66.0267 122.467 67.12 121.72 68.56C120.973 70 120.6 71.7733 120.6 73.88C120.6 75.96 120.96 77.7333 121.68 79.2C122.427 80.64 123.44 81.7333 124.72 82.48C126 83.2267 127.453 83.6 129.08 83.6C129.747 83.6 130.493 83.52 131.32 83.36C132.147 83.1733 132.987 82.76 133.84 82.12C134.72 81.4533 135.56 80.4 136.36 78.96V92.68H134.44V83.6ZM139.52 62.72H141.44V92.72L139.52 92.68V62.72ZM136.52 75.24C136.52 76.4933 136.227 77.6 135.64 78.56C135.053 79.52 134.307 80.2667 133.4 80.8C132.493 81.3067 131.547 81.56 130.56 81.56C128.64 81.56 127.04 80.9467 125.76 79.72C124.507 78.4667 123.88 76.56 123.88 74C123.88 71.3867 124.493 69.44 125.72 68.16C126.973 66.88 128.573 66.24 130.52 66.24C131.96 66.24 133.2 66.6667 134.24 67.52C135.307 68.3733 136.067 69.44 136.52 70.72V75.24ZM134.6 71.04C134.333 70.2667 133.84 69.6 133.12 69.04C132.427 68.4533 131.56 68.16 130.52 68.16C129.08 68.16 127.933 68.6533 127.08 69.64C126.227 70.6267 125.8 72.08 125.8 74C125.8 75.8933 126.24 77.3067 127.12 78.24C128 79.1733 129.147 79.64 130.56 79.64C131.653 79.64 132.6 79.24 133.4 78.44C134.2 77.6133 134.6 76.5467 134.6 75.24V71.04Z" fill="#FBA6AE"/>
<path d="M808.44 207.6C807.4 208.853 805.613 209.48 803.08 209.48C801.107 209.48 799.333 209.04 797.76 208.16C796.187 207.28 794.947 205.987 794.04 204.28C793.133 202.547 792.68 200.413 792.68 197.88C792.68 195.32 793.147 193.173 794.08 191.44C795.013 189.707 796.24 188.4 797.76 187.52C799.307 186.64 800.973 186.2 802.76 186.2C803.587 186.2 804.427 186.307 805.28 186.52C806.16 186.707 806.96 187 807.68 187.4C808.427 187.8 808.96 188.307 809.28 188.92V186.72H811.2V192.88C810.4 191.573 809.507 190.587 808.52 189.92C807.533 189.227 806.547 188.76 805.56 188.52C804.573 188.253 803.64 188.12 802.76 188.12C801.293 188.12 799.933 188.507 798.68 189.28C797.453 190.027 796.467 191.12 795.72 192.56C794.973 194 794.6 195.773 794.6 197.88C794.6 199.96 794.96 201.733 795.68 203.2C796.427 204.64 797.44 205.733 798.72 206.48C800 207.227 801.453 207.6 803.08 207.6C803.747 207.6 804.493 207.52 805.32 207.36C806.147 207.173 806.987 206.76 807.84 206.12C808.72 205.453 809.56 204.4 810.36 202.96V216.68H808.44V207.6ZM813.52 186.72H815.44V216.72L813.52 216.68V186.72ZM810.52 199.24C810.52 200.493 810.227 201.6 809.64 202.56C809.053 203.52 808.307 204.267 807.4 204.8C806.493 205.307 805.547 205.56 804.56 205.56C802.64 205.56 801.04 204.947 799.76 203.72C798.507 202.467 797.88 200.56 797.88 198C797.88 195.387 798.493 193.44 799.72 192.16C800.973 190.88 802.573 190.24 804.52 190.24C805.96 190.24 807.2 190.667 808.24 191.52C809.307 192.373 810.067 193.44 810.52 194.72V199.24ZM808.6 195.04C808.333 194.267 807.84 193.6 807.12 193.04C806.427 192.453 805.56 192.16 804.52 192.16C803.08 192.16 801.933 192.653 801.08 193.64C800.227 194.627 799.8 196.08 799.8 198C799.8 199.893 800.24 201.307 801.12 202.24C802 203.173 803.147 203.64 804.56 203.64C805.653 203.64 806.6 203.24 807.4 202.44C808.2 201.613 808.6 200.547 808.6 199.24V195.04Z" fill="#5DA2D7"/>
<path d="M1897.44 502.6C1896.4 503.853 1894.61 504.48 1892.08 504.48C1890.11 504.48 1888.33 504.04 1886.76 503.16C1885.19 502.28 1883.95 500.987 1883.04 499.28C1882.13 497.547 1881.68 495.413 1881.68 492.88C1881.68 490.32 1882.15 488.173 1883.08 486.44C1884.01 484.707 1885.24 483.4 1886.76 482.52C1888.31 481.64 1889.97 481.2 1891.76 481.2C1892.59 481.2 1893.43 481.307 1894.28 481.52C1895.16 481.707 1895.96 482 1896.68 482.4C1897.43 482.8 1897.96 483.307 1898.28 483.92V481.72H1900.2V487.88C1899.4 486.573 1898.51 485.587 1897.52 484.92C1896.53 484.227 1895.55 483.76 1894.56 483.52C1893.57 483.253 1892.64 483.12 1891.76 483.12C1890.29 483.12 1888.93 483.507 1887.68 484.28C1886.45 485.027 1885.47 486.12 1884.72 487.56C1883.97 489 1883.6 490.773 1883.6 492.88C1883.6 494.96 1883.96 496.733 1884.68 498.2C1885.43 499.64 1886.44 500.733 1887.72 501.48C1889 502.227 1890.45 502.6 1892.08 502.6C1892.75 502.6 1893.49 502.52 1894.32 502.36C1895.15 502.173 1895.99 501.76 1896.84 501.12C1897.72 500.453 1898.56 499.4 1899.36 497.96V511.68H1897.44V502.6ZM1902.52 481.72H1904.44V511.72L1902.52 511.68V481.72ZM1899.52 494.24C1899.52 495.493 1899.23 496.6 1898.64 497.56C1898.05 498.52 1897.31 499.267 1896.4 499.8C1895.49 500.307 1894.55 500.56 1893.56 500.56C1891.64 500.56 1890.04 499.947 1888.76 498.72C1887.51 497.467 1886.88 495.56 1886.88 493C1886.88 490.387 1887.49 488.44 1888.72 487.16C1889.97 485.88 1891.57 485.24 1893.52 485.24C1894.96 485.24 1896.2 485.667 1897.24 486.52C1898.31 487.373 1899.07 488.44 1899.52 489.72V494.24ZM1897.6 490.04C1897.33 489.267 1896.84 488.6 1896.12 488.04C1895.43 487.453 1894.56 487.16 1893.52 487.16C1892.08 487.16 1890.93 487.653 1890.08 488.64C1889.23 489.627 1888.8 491.08 1888.8 493C1888.8 494.893 1889.24 496.307 1890.12 497.24C1891 498.173 1892.15 498.64 1893.56 498.64C1894.65 498.64 1895.6 498.24 1896.4 497.44C1897.2 496.613 1897.6 495.547 1897.6 494.24V490.04Z" fill="#FFDB01"/>
<path d="M1727.44 15.6C1726.4 16.8533 1724.61 17.48 1722.08 17.48C1720.11 17.48 1718.33 17.04 1716.76 16.16C1715.19 15.28 1713.95 13.9867 1713.04 12.28C1712.13 10.5467 1711.68 8.41333 1711.68 5.88C1711.68 3.32 1712.15 1.17333 1713.08 -0.56C1714.01 -2.29333 1715.24 -3.6 1716.76 -4.48C1718.31 -5.36 1719.97 -5.8 1721.76 -5.8C1722.59 -5.8 1723.43 -5.69334 1724.28 -5.48C1725.16 -5.29333 1725.96 -5 1726.68 -4.6C1727.43 -4.2 1727.96 -3.69333 1728.28 -3.08V-5.28H1730.2V0.879999C1729.4 -0.426668 1728.51 -1.41333 1727.52 -2.08C1726.53 -2.77333 1725.55 -3.24 1724.56 -3.48C1723.57 -3.74667 1722.64 -3.88 1721.76 -3.88C1720.29 -3.88 1718.93 -3.49333 1717.68 -2.72C1716.45 -1.97333 1715.47 -0.880001 1714.72 0.559999C1713.97 2 1713.6 3.77333 1713.6 5.88C1713.6 7.96 1713.96 9.73333 1714.68 11.2C1715.43 12.64 1716.44 13.7333 1717.72 14.48C1719 15.2267 1720.45 15.6 1722.08 15.6C1722.75 15.6 1723.49 15.52 1724.32 15.36C1725.15 15.1733 1725.99 14.76 1726.84 14.12C1727.72 13.4533 1728.56 12.4 1729.36 10.96V24.68H1727.44V15.6ZM1732.52 -5.28H1734.44V24.72L1732.52 24.68V-5.28ZM1729.52 7.24C1729.52 8.49333 1729.23 9.6 1728.64 10.56C1728.05 11.52 1727.31 12.2667 1726.4 12.8C1725.49 13.3067 1724.55 13.56 1723.56 13.56C1721.64 13.56 1720.04 12.9467 1718.76 11.72C1717.51 10.4667 1716.88 8.56 1716.88 6C1716.88 3.38667 1717.49 1.44 1718.72 0.159999C1719.97 -1.12 1721.57 -1.76 1723.52 -1.76C1724.96 -1.76 1726.2 -1.33333 1727.24 -0.48C1728.31 0.373332 1729.07 1.44 1729.52 2.72V7.24ZM1727.6 3.04C1727.33 2.26667 1726.84 1.6 1726.12 1.04C1725.43 0.453332 1724.56 0.159999 1723.52 0.159999C1722.08 0.159999 1720.93 0.653332 1720.08 1.64C1719.23 2.62667 1718.8 4.08 1718.8 6C1718.8 7.89333 1719.24 9.30667 1720.12 10.24C1721 11.1733 1722.15 11.64 1723.56 11.64C1724.65 11.64 1725.6 11.24 1726.4 10.44C1727.2 9.61333 1727.6 8.54667 1727.6 7.24V3.04Z" fill="#5DA2D7"/>
<path d="M395.44 588.6C394.4 589.853 392.613 590.48 390.08 590.48C388.107 590.48 386.333 590.04 384.76 589.16C383.187 588.28 381.947 586.987 381.04 585.28C380.133 583.547 379.68 581.413 379.68 578.88C379.68 576.32 380.147 574.173 381.08 572.44C382.013 570.707 383.24 569.4 384.76 568.52C386.307 567.64 387.973 567.2 389.76 567.2C390.587 567.2 391.427 567.307 392.28 567.52C393.16 567.707 393.96 568 394.68 568.4C395.427 568.8 395.96 569.307 396.28 569.92V567.72H398.2V573.88C397.4 572.573 396.507 571.587 395.52 570.92C394.533 570.227 393.547 569.76 392.56 569.52C391.573 569.253 390.64 569.12 389.76 569.12C388.293 569.12 386.933 569.507 385.68 570.28C384.453 571.027 383.467 572.12 382.72 573.56C381.973 575 381.6 576.773 381.6 578.88C381.6 580.96 381.96 582.733 382.68 584.2C383.427 585.64 384.44 586.733 385.72 587.48C387 588.227 388.453 588.6 390.08 588.6C390.747 588.6 391.493 588.52 392.32 588.36C393.147 588.173 393.987 587.76 394.84 587.12C395.72 586.453 396.56 585.4 397.36 583.96V597.68H395.44V588.6ZM400.52 567.72H402.44V597.72L400.52 597.68V567.72ZM397.52 580.24C397.52 581.493 397.227 582.6 396.64 583.56C396.053 584.52 395.307 585.267 394.4 585.8C393.493 586.307 392.547 586.56 391.56 586.56C389.64 586.56 388.04 585.947 386.76 584.72C385.507 583.467 384.88 581.56 384.88 579C384.88 576.387 385.493 574.44 386.72 573.16C387.973 571.88 389.573 571.24 391.52 571.24C392.96 571.24 394.2 571.667 395.24 572.52C396.307 573.373 397.067 574.44 397.52 575.72V580.24ZM395.6 576.04C395.333 575.267 394.84 574.6 394.12 574.04C393.427 573.453 392.56 573.16 391.52 573.16C390.08 573.16 388.933 573.653 388.08 574.64C387.227 575.627 386.8 577.08 386.8 579C386.8 580.893 387.24 582.307 388.12 583.24C389 584.173 390.147 584.64 391.56 584.64C392.653 584.64 393.6 584.24 394.4 583.44C395.2 582.613 395.6 581.547 395.6 580.24V576.04Z" fill="#FBA6AE"/>
<path d="M1573.44 389.6C1572.4 390.853 1570.61 391.48 1568.08 391.48C1566.11 391.48 1564.33 391.04 1562.76 390.16C1561.19 389.28 1559.95 387.987 1559.04 386.28C1558.13 384.547 1557.68 382.413 1557.68 379.88C1557.68 377.32 1558.15 375.173 1559.08 373.44C1560.01 371.707 1561.24 370.4 1562.76 369.52C1564.31 368.64 1565.97 368.2 1567.76 368.2C1568.59 368.2 1569.43 368.307 1570.28 368.52C1571.16 368.707 1571.96 369 1572.68 369.4C1573.43 369.8 1573.96 370.307 1574.28 370.92V368.72H1576.2V374.88C1575.4 373.573 1574.51 372.587 1573.52 371.92C1572.53 371.227 1571.55 370.76 1570.56 370.52C1569.57 370.253 1568.64 370.12 1567.76 370.12C1566.29 370.12 1564.93 370.507 1563.68 371.28C1562.45 372.027 1561.47 373.12 1560.72 374.56C1559.97 376 1559.6 377.773 1559.6 379.88C1559.6 381.96 1559.96 383.733 1560.68 385.2C1561.43 386.64 1562.44 387.733 1563.72 388.48C1565 389.227 1566.45 389.6 1568.08 389.6C1568.75 389.6 1569.49 389.52 1570.32 389.36C1571.15 389.173 1571.99 388.76 1572.84 388.12C1573.72 387.453 1574.56 386.4 1575.36 384.96V398.68H1573.44V389.6ZM1578.52 368.72H1580.44V398.72L1578.52 398.68V368.72ZM1575.52 381.24C1575.52 382.493 1575.23 383.6 1574.64 384.56C1574.05 385.52 1573.31 386.267 1572.4 386.8C1571.49 387.307 1570.55 387.56 1569.56 387.56C1567.64 387.56 1566.04 386.947 1564.76 385.72C1563.51 384.467 1562.88 382.56 1562.88 380C1562.88 377.387 1563.49 375.44 1564.72 374.16C1565.97 372.88 1567.57 372.24 1569.52 372.24C1570.96 372.24 1572.2 372.667 1573.24 373.52C1574.31 374.373 1575.07 375.44 1575.52 376.72V381.24ZM1573.6 377.04C1573.33 376.267 1572.84 375.6 1572.12 375.04C1571.43 374.453 1570.56 374.16 1569.52 374.16C1568.08 374.16 1566.93 374.653 1566.08 375.64C1565.23 376.627 1564.8 378.08 1564.8 380C1564.8 381.893 1565.24 383.307 1566.12 384.24C1567 385.173 1568.15 385.64 1569.56 385.64C1570.65 385.64 1571.6 385.24 1572.4 384.44C1573.2 383.613 1573.6 382.547 1573.6 381.24V377.04Z" fill="#FBA6AE"/>
<path d="M301.44 1221.6C300.4 1222.85 298.613 1223.48 296.08 1223.48C294.107 1223.48 292.333 1223.04 290.76 1222.16C289.187 1221.28 287.947 1219.99 287.04 1218.28C286.133 1216.55 285.68 1214.41 285.68 1211.88C285.68 1209.32 286.147 1207.17 287.08 1205.44C288.013 1203.71 289.24 1202.4 290.76 1201.52C292.307 1200.64 293.973 1200.2 295.76 1200.2C296.587 1200.2 297.427 1200.31 298.28 1200.52C299.16 1200.71 299.96 1201 300.68 1201.4C301.427 1201.8 301.96 1202.31 302.28 1202.92V1200.72H304.2V1206.88C303.4 1205.57 302.507 1204.59 301.52 1203.92C300.533 1203.23 299.547 1202.76 298.56 1202.52C297.573 1202.25 296.64 1202.12 295.76 1202.12C294.293 1202.12 292.933 1202.51 291.68 1203.28C290.453 1204.03 289.467 1205.12 288.72 1206.56C287.973 1208 287.6 1209.77 287.6 1211.88C287.6 1213.96 287.96 1215.73 288.68 1217.2C289.427 1218.64 290.44 1219.73 291.72 1220.48C293 1221.23 294.453 1221.6 296.08 1221.6C296.747 1221.6 297.493 1221.52 298.32 1221.36C299.147 1221.17 299.987 1220.76 300.84 1220.12C301.72 1219.45 302.56 1218.4 303.36 1216.96V1230.68H301.44V1221.6ZM306.52 1200.72H308.44V1230.72L306.52 1230.68V1200.72ZM303.52 1213.24C303.52 1214.49 303.227 1215.6 302.64 1216.56C302.053 1217.52 301.307 1218.27 300.4 1218.8C299.493 1219.31 298.547 1219.56 297.56 1219.56C295.64 1219.56 294.04 1218.95 292.76 1217.72C291.507 1216.47 290.88 1214.56 290.88 1212C290.88 1209.39 291.493 1207.44 292.72 1206.16C293.973 1204.88 295.573 1204.24 297.52 1204.24C298.96 1204.24 300.2 1204.67 301.24 1205.52C302.307 1206.37 303.067 1207.44 303.52 1208.72V1213.24ZM301.6 1209.04C301.333 1208.27 300.84 1207.6 300.12 1207.04C299.427 1206.45 298.56 1206.16 297.52 1206.16C296.08 1206.16 294.933 1206.65 294.08 1207.64C293.227 1208.63 292.8 1210.08 292.8 1212C292.8 1213.89 293.24 1215.31 294.12 1216.24C295 1217.17 296.147 1217.64 297.56 1217.64C298.653 1217.64 299.6 1217.24 300.4 1216.44C301.2 1215.61 301.6 1214.55 301.6 1213.24V1209.04Z" fill="#5DA2D7"/>
<path d="M516.44 1011.6C515.4 1012.85 513.613 1013.48 511.08 1013.48C509.107 1013.48 507.333 1013.04 505.76 1012.16C504.187 1011.28 502.947 1009.99 502.04 1008.28C501.133 1006.55 500.68 1004.41 500.68 1001.88C500.68 999.32 501.147 997.173 502.08 995.44C503.013 993.707 504.24 992.4 505.76 991.52C507.307 990.64 508.973 990.2 510.76 990.2C511.587 990.2 512.427 990.307 513.28 990.52C514.16 990.707 514.96 991 515.68 991.4C516.427 991.8 516.96 992.307 517.28 992.92V990.72H519.2V996.88C518.4 995.573 517.507 994.587 516.52 993.92C515.533 993.227 514.547 992.76 513.56 992.52C512.573 992.253 511.64 992.12 510.76 992.12C509.293 992.12 507.933 992.507 506.68 993.28C505.453 994.027 504.467 995.12 503.72 996.56C502.973 998 502.6 999.773 502.6 1001.88C502.6 1003.96 502.96 1005.73 503.68 1007.2C504.427 1008.64 505.44 1009.73 506.72 1010.48C508 1011.23 509.453 1011.6 511.08 1011.6C511.747 1011.6 512.493 1011.52 513.32 1011.36C514.147 1011.17 514.987 1010.76 515.84 1010.12C516.72 1009.45 517.56 1008.4 518.36 1006.96V1020.68H516.44V1011.6ZM521.52 990.72H523.44V1020.72L521.52 1020.68V990.72ZM518.52 1003.24C518.52 1004.49 518.227 1005.6 517.64 1006.56C517.053 1007.52 516.307 1008.27 515.4 1008.8C514.493 1009.31 513.547 1009.56 512.56 1009.56C510.64 1009.56 509.04 1008.95 507.76 1007.72C506.507 1006.47 505.88 1004.56 505.88 1002C505.88 999.387 506.493 997.44 507.72 996.16C508.973 994.88 510.573 994.24 512.52 994.24C513.96 994.24 515.2 994.667 516.24 995.52C517.307 996.373 518.067 997.44 518.52 998.72V1003.24ZM516.6 999.04C516.333 998.267 515.84 997.6 515.12 997.04C514.427 996.453 513.56 996.16 512.52 996.16C511.08 996.16 509.933 996.653 509.08 997.64C508.227 998.627 507.8 1000.08 507.8 1002C507.8 1003.89 508.24 1005.31 509.12 1006.24C510 1007.17 511.147 1007.64 512.56 1007.64C513.653 1007.64 514.6 1007.24 515.4 1006.44C516.2 1005.61 516.6 1004.55 516.6 1003.24V999.04Z" fill="#FBA6AE"/>
<path d="M931.44 15.6C930.4 16.8533 928.613 17.48 926.08 17.48C924.107 17.48 922.333 17.04 920.76 16.16C919.187 15.28 917.947 13.9867 917.04 12.28C916.133 10.5467 915.68 8.41333 915.68 5.88C915.68 3.32 916.147 1.17333 917.08 -0.56C918.013 -2.29333 919.24 -3.6 920.76 -4.48C922.307 -5.36 923.973 -5.8 925.76 -5.8C926.587 -5.8 927.427 -5.69334 928.28 -5.48C929.16 -5.29333 929.96 -5 930.68 -4.6C931.427 -4.2 931.96 -3.69333 932.28 -3.08V-5.28H934.2V0.879999C933.4 -0.426668 932.507 -1.41333 931.52 -2.08C930.533 -2.77333 929.547 -3.24 928.56 -3.48C927.573 -3.74667 926.64 -3.88 925.76 -3.88C924.293 -3.88 922.933 -3.49333 921.68 -2.72C920.453 -1.97333 919.467 -0.880001 918.72 0.559999C917.973 2 917.6 3.77333 917.6 5.88C917.6 7.96 917.96 9.73333 918.68 11.2C919.427 12.64 920.44 13.7333 921.72 14.48C923 15.2267 924.453 15.6 926.08 15.6C926.747 15.6 927.493 15.52 928.32 15.36C929.147 15.1733 929.987 14.76 930.84 14.12C931.72 13.4533 932.56 12.4 933.36 10.96V24.68H931.44V15.6ZM936.52 -5.28H938.44V24.72L936.52 24.68V-5.28ZM933.52 7.24C933.52 8.49333 933.227 9.6 932.64 10.56C932.053 11.52 931.307 12.2667 930.4 12.8C929.493 13.3067 928.547 13.56 927.56 13.56C925.64 13.56 924.04 12.9467 922.76 11.72C921.507 10.4667 920.88 8.56 920.88 6C920.88 3.38667 921.493 1.44 922.72 0.159999C923.973 -1.12 925.573 -1.76 927.52 -1.76C928.96 -1.76 930.2 -1.33333 931.24 -0.48C932.307 0.373332 933.067 1.44 933.52 2.72V7.24ZM931.6 3.04C931.333 2.26667 930.84 1.6 930.12 1.04C929.427 0.453332 928.56 0.159999 927.52 0.159999C926.08 0.159999 924.933 0.653332 924.08 1.64C923.227 2.62667 922.8 4.08 922.8 6C922.8 7.89333 923.24 9.30667 924.12 10.24C925 11.1733 926.147 11.64 927.56 11.64C928.653 11.64 929.6 11.24 930.4 10.44C931.2 9.61333 931.6 8.54667 931.6 7.24V3.04Z" fill="#FBA6AE"/>
<path d="M119.72 306.8H121.64V338H119.72V306.8ZM123.72 331.24C124.52 332.787 125.413 333.947 126.4 334.72C127.387 335.467 128.413 335.973 129.48 336.24C130.547 336.48 131.56 336.6 132.52 336.6C134.973 336.6 136.88 335.76 138.24 334.08C139.627 332.4 140.32 329.987 140.32 326.84C140.32 323.72 139.627 321.32 138.24 319.64C136.853 317.96 134.933 317.12 132.48 317.12C131.867 317.12 131.133 317.173 130.28 317.28C129.453 317.387 128.56 317.707 127.6 318.24C126.667 318.773 125.733 319.667 124.8 320.92V306.8H126.72V317.32C127.227 316.627 127.987 316.107 129 315.76C130.04 315.387 131.2 315.2 132.48 315.2C135.44 315.2 137.8 316.187 139.56 318.16C141.347 320.133 142.24 323.027 142.24 326.84C142.24 329.4 141.827 331.547 141 333.28C140.173 334.987 139.027 336.28 137.56 337.16C136.12 338.04 134.44 338.48 132.52 338.48C131.747 338.48 130.907 338.413 130 338.28C129.093 338.147 128.253 337.907 127.48 337.56C126.707 337.213 126.093 336.733 125.64 336.12V338H123.72V331.24ZM124.68 325.6C124.68 324.453 124.947 323.4 125.48 322.44C126.013 321.48 126.72 320.72 127.6 320.16C128.507 319.573 129.507 319.28 130.6 319.28C132.52 319.28 134.067 319.893 135.24 321.12C136.44 322.32 137.04 324.227 137.04 326.84C137.04 328.627 136.747 330.093 136.16 331.24C135.6 332.36 134.827 333.2 133.84 333.76C132.88 334.293 131.813 334.56 130.64 334.56C129.333 334.56 128.173 334.16 127.16 333.36C126.147 332.56 125.32 331.547 124.68 330.32V325.6ZM126.6 329.88C126.947 330.68 127.467 331.347 128.16 331.88C128.88 332.387 129.707 332.64 130.64 332.64C131.947 332.64 133.013 332.187 133.84 331.28C134.693 330.347 135.12 328.867 135.12 326.84C135.12 324.947 134.72 323.533 133.92 322.6C133.12 321.667 132.013 321.2 130.6 321.2C129.48 321.2 128.533 321.627 127.76 322.48C126.987 323.333 126.6 324.373 126.6 325.6V329.88Z" fill="#5DA2D7"/>
<path d="M1167.72 931.8H1169.64V963H1167.72V931.8ZM1171.72 956.24C1172.52 957.787 1173.41 958.947 1174.4 959.72C1175.39 960.467 1176.41 960.973 1177.48 961.24C1178.55 961.48 1179.56 961.6 1180.52 961.6C1182.97 961.6 1184.88 960.76 1186.24 959.08C1187.63 957.4 1188.32 954.987 1188.32 951.84C1188.32 948.72 1187.63 946.32 1186.24 944.64C1184.85 942.96 1182.93 942.12 1180.48 942.12C1179.87 942.12 1179.13 942.173 1178.28 942.28C1177.45 942.387 1176.56 942.707 1175.6 943.24C1174.67 943.773 1173.73 944.667 1172.8 945.92V931.8H1174.72V942.32C1175.23 941.627 1175.99 941.107 1177 940.76C1178.04 940.387 1179.2 940.2 1180.48 940.2C1183.44 940.2 1185.8 941.187 1187.56 943.16C1189.35 945.133 1190.24 948.027 1190.24 951.84C1190.24 954.4 1189.83 956.547 1189 958.28C1188.17 959.987 1187.03 961.28 1185.56 962.16C1184.12 963.04 1182.44 963.48 1180.52 963.48C1179.75 963.48 1178.91 963.413 1178 963.28C1177.09 963.147 1176.25 962.907 1175.48 962.56C1174.71 962.213 1174.09 961.733 1173.64 961.12V963H1171.72V956.24ZM1172.68 950.6C1172.68 949.453 1172.95 948.4 1173.48 947.44C1174.01 946.48 1174.72 945.72 1175.6 945.16C1176.51 944.573 1177.51 944.28 1178.6 944.28C1180.52 944.28 1182.07 944.893 1183.24 946.12C1184.44 947.32 1185.04 949.227 1185.04 951.84C1185.04 953.627 1184.75 955.093 1184.16 956.24C1183.6 957.36 1182.83 958.2 1181.84 958.76C1180.88 959.293 1179.81 959.56 1178.64 959.56C1177.33 959.56 1176.17 959.16 1175.16 958.36C1174.15 957.56 1173.32 956.547 1172.68 955.32V950.6ZM1174.6 954.88C1174.95 955.68 1175.47 956.347 1176.16 956.88C1176.88 957.387 1177.71 957.64 1178.64 957.64C1179.95 957.64 1181.01 957.187 1181.84 956.28C1182.69 955.347 1183.12 953.867 1183.12 951.84C1183.12 949.947 1182.72 948.533 1181.92 947.6C1181.12 946.667 1180.01 946.2 1178.6 946.2C1177.48 946.2 1176.53 946.627 1175.76 947.48C1174.99 948.333 1174.6 949.373 1174.6 950.6V954.88Z" fill="#FBA6AE"/>
<path d="M1725.72 863.8H1727.64V895H1725.72V863.8ZM1729.72 888.24C1730.52 889.787 1731.41 890.947 1732.4 891.72C1733.39 892.467 1734.41 892.973 1735.48 893.24C1736.55 893.48 1737.56 893.6 1738.52 893.6C1740.97 893.6 1742.88 892.76 1744.24 891.08C1745.63 889.4 1746.32 886.987 1746.32 883.84C1746.32 880.72 1745.63 878.32 1744.24 876.64C1742.85 874.96 1740.93 874.12 1738.48 874.12C1737.87 874.12 1737.13 874.173 1736.28 874.28C1735.45 874.387 1734.56 874.707 1733.6 875.24C1732.67 875.773 1731.73 876.667 1730.8 877.92V863.8H1732.72V874.32C1733.23 873.627 1733.99 873.107 1735 872.76C1736.04 872.387 1737.2 872.2 1738.48 872.2C1741.44 872.2 1743.8 873.187 1745.56 875.16C1747.35 877.133 1748.24 880.027 1748.24 883.84C1748.24 886.4 1747.83 888.547 1747 890.28C1746.17 891.987 1745.03 893.28 1743.56 894.16C1742.12 895.04 1740.44 895.48 1738.52 895.48C1737.75 895.48 1736.91 895.413 1736 895.28C1735.09 895.147 1734.25 894.907 1733.48 894.56C1732.71 894.213 1732.09 893.733 1731.64 893.12V895H1729.72V888.24ZM1730.68 882.6C1730.68 881.453 1730.95 880.4 1731.48 879.44C1732.01 878.48 1732.72 877.72 1733.6 877.16C1734.51 876.573 1735.51 876.28 1736.6 876.28C1738.52 876.28 1740.07 876.893 1741.24 878.12C1742.44 879.32 1743.04 881.227 1743.04 883.84C1743.04 885.627 1742.75 887.093 1742.16 888.24C1741.6 889.36 1740.83 890.2 1739.84 890.76C1738.88 891.293 1737.81 891.56 1736.64 891.56C1735.33 891.56 1734.17 891.16 1733.16 890.36C1732.15 889.56 1731.32 888.547 1730.68 887.32V882.6ZM1732.6 886.88C1732.95 887.68 1733.47 888.347 1734.16 888.88C1734.88 889.387 1735.71 889.64 1736.64 889.64C1737.95 889.64 1739.01 889.187 1739.84 888.28C1740.69 887.347 1741.12 885.867 1741.12 883.84C1741.12 881.947 1740.72 880.533 1739.92 879.6C1739.12 878.667 1738.01 878.2 1736.6 878.2C1735.48 878.2 1734.53 878.627 1733.76 879.48C1732.99 880.333 1732.6 881.373 1732.6 882.6V886.88Z" fill="#FBA6AE"/>
<path d="M905.72 1191.8H907.64V1223H905.72V1191.8ZM909.72 1216.24C910.52 1217.79 911.413 1218.95 912.4 1219.72C913.387 1220.47 914.413 1220.97 915.48 1221.24C916.547 1221.48 917.56 1221.6 918.52 1221.6C920.973 1221.6 922.88 1220.76 924.24 1219.08C925.627 1217.4 926.32 1214.99 926.32 1211.84C926.32 1208.72 925.627 1206.32 924.24 1204.64C922.853 1202.96 920.933 1202.12 918.48 1202.12C917.867 1202.12 917.133 1202.17 916.28 1202.28C915.453 1202.39 914.56 1202.71 913.6 1203.24C912.667 1203.77 911.733 1204.67 910.8 1205.92V1191.8H912.72V1202.32C913.227 1201.63 913.987 1201.11 915 1200.76C916.04 1200.39 917.2 1200.2 918.48 1200.2C921.44 1200.2 923.8 1201.19 925.56 1203.16C927.347 1205.13 928.24 1208.03 928.24 1211.84C928.24 1214.4 927.827 1216.55 927 1218.28C926.173 1219.99 925.027 1221.28 923.56 1222.16C922.12 1223.04 920.44 1223.48 918.52 1223.48C917.747 1223.48 916.907 1223.41 916 1223.28C915.093 1223.15 914.253 1222.91 913.48 1222.56C912.707 1222.21 912.093 1221.73 911.64 1221.12V1223H909.72V1216.24ZM910.68 1210.6C910.68 1209.45 910.947 1208.4 911.48 1207.44C912.013 1206.48 912.72 1205.72 913.6 1205.16C914.507 1204.57 915.507 1204.28 916.6 1204.28C918.52 1204.28 920.067 1204.89 921.24 1206.12C922.44 1207.32 923.04 1209.23 923.04 1211.84C923.04 1213.63 922.747 1215.09 922.16 1216.24C921.6 1217.36 920.827 1218.2 919.84 1218.76C918.88 1219.29 917.813 1219.56 916.64 1219.56C915.333 1219.56 914.173 1219.16 913.16 1218.36C912.147 1217.56 911.32 1216.55 910.68 1215.32V1210.6ZM912.6 1214.88C912.947 1215.68 913.467 1216.35 914.16 1216.88C914.88 1217.39 915.707 1217.64 916.64 1217.64C917.947 1217.64 919.013 1217.19 919.84 1216.28C920.693 1215.35 921.12 1213.87 921.12 1211.84C921.12 1209.95 920.72 1208.53 919.92 1207.6C919.12 1206.67 918.013 1206.2 916.6 1206.2C915.48 1206.2 914.533 1206.63 913.76 1207.48C912.987 1208.33 912.6 1209.37 912.6 1210.6V1214.88Z" fill="#FFDB01"/>
<path d="M-10.28 913.8H-8.36V945H-10.28V913.8ZM-6.28 938.24C-5.48 939.787 -4.58667 940.947 -3.6 941.72C-2.61333 942.467 -1.58667 942.973 -0.52 943.24C0.546667 943.48 1.56 943.6 2.52 943.6C4.97333 943.6 6.88 942.76 8.24 941.08C9.62667 939.4 10.32 936.987 10.32 933.84C10.32 930.72 9.62667 928.32 8.24 926.64C6.85333 924.96 4.93333 924.12 2.48 924.12C1.86667 924.12 1.13333 924.173 0.280001 924.28C-0.546666 924.387 -1.44 924.707 -2.4 925.24C-3.33333 925.773 -4.26667 926.667 -5.2 927.92V913.8H-3.28V924.32C-2.77333 923.627 -2.01333 923.107 -1 922.76C0.0400006 922.387 1.2 922.2 2.48 922.2C5.44 922.2 7.8 923.187 9.56 925.16C11.3467 927.133 12.24 930.027 12.24 933.84C12.24 936.4 11.8267 938.547 11 940.28C10.1733 941.987 9.02667 943.28 7.56 944.16C6.12 945.04 4.44 945.48 2.52 945.48C1.74667 945.48 0.906668 945.413 7.15256e-07 945.28C-0.906666 945.147 -1.74667 944.907 -2.52 944.56C-3.29333 944.213 -3.90667 943.733 -4.36 943.12V945H-6.28V938.24ZM-5.32 932.6C-5.32 931.453 -5.05333 930.4 -4.52 929.44C-3.98667 928.48 -3.28 927.72 -2.4 927.16C-1.49333 926.573 -0.493333 926.28 0.6 926.28C2.52 926.28 4.06667 926.893 5.24 928.12C6.44 929.32 7.04 931.227 7.04 933.84C7.04 935.627 6.74667 937.093 6.16 938.24C5.6 939.36 4.82667 940.2 3.84 940.76C2.88 941.293 1.81333 941.56 0.640001 941.56C-0.666666 941.56 -1.82667 941.16 -2.84 940.36C-3.85333 939.56 -4.68 938.547 -5.32 937.32V932.6ZM-3.4 936.88C-3.05333 937.68 -2.53333 938.347 -1.84 938.88C-1.12 939.387 -0.293332 939.64 0.640001 939.64C1.94667 939.64 3.01333 939.187 3.84 938.28C4.69333 937.347 5.12 935.867 5.12 933.84C5.12 931.947 4.72 930.533 3.92 929.6C3.12 928.667 2.01333 928.2 0.6 928.2C-0.52 928.2 -1.46667 928.627 -2.24 929.48C-3.01333 930.333 -3.4 931.373 -3.4 932.6V936.88Z" fill="white"/>
<path d="M-10.28 913.8H-8.36V945H-10.28V913.8ZM-6.28 938.24C-5.48 939.787 -4.58667 940.947 -3.6 941.72C-2.61333 942.467 -1.58667 942.973 -0.52 943.24C0.546667 943.48 1.56 943.6 2.52 943.6C4.97333 943.6 6.88 942.76 8.24 941.08C9.62667 939.4 10.32 936.987 10.32 933.84C10.32 930.72 9.62667 928.32 8.24 926.64C6.85333 924.96 4.93333 924.12 2.48 924.12C1.86667 924.12 1.13333 924.173 0.280001 924.28C-0.546666 924.387 -1.44 924.707 -2.4 925.24C-3.33333 925.773 -4.26667 926.667 -5.2 927.92V913.8H-3.28V924.32C-2.77333 923.627 -2.01333 923.107 -1 922.76C0.0400006 922.387 1.2 922.2 2.48 922.2C5.44 922.2 7.8 923.187 9.56 925.16C11.3467 927.133 12.24 930.027 12.24 933.84C12.24 936.4 11.8267 938.547 11 940.28C10.1733 941.987 9.02667 943.28 7.56 944.16C6.12 945.04 4.44 945.48 2.52 945.48C1.74667 945.48 0.906668 945.413 7.15256e-07 945.28C-0.906666 945.147 -1.74667 944.907 -2.52 944.56C-3.29333 944.213 -3.90667 943.733 -4.36 943.12V945H-6.28V938.24ZM-5.32 932.6C-5.32 931.453 -5.05333 930.4 -4.52 929.44C-3.98667 928.48 -3.28 927.72 -2.4 927.16C-1.49333 926.573 -0.493333 926.28 0.6 926.28C2.52 926.28 4.06667 926.893 5.24 928.12C6.44 929.32 7.04 931.227 7.04 933.84C7.04 935.627 6.74667 937.093 6.16 938.24C5.6 939.36 4.82667 940.2 3.84 940.76C2.88 941.293 1.81333 941.56 0.640001 941.56C-0.666666 941.56 -1.82667 941.16 -2.84 940.36C-3.85333 939.56 -4.68 938.547 -5.32 937.32V932.6ZM-3.4 936.88C-3.05333 937.68 -2.53333 938.347 -1.84 938.88C-1.12 939.387 -0.293332 939.64 0.640001 939.64C1.94667 939.64 3.01333 939.187 3.84 938.28C4.69333 937.347 5.12 935.867 5.12 933.84C5.12 931.947 4.72 930.533 3.92 929.6C3.12 928.667 2.01333 928.2 0.6 928.2C-0.52 928.2 -1.46667 928.627 -2.24 929.48C-3.01333 930.333 -3.4 931.373 -3.4 932.6V936.88Z" fill="#FFDB01"/>
<path d="M593.68 383.64V381.64H577.32V379.72H595.6V384.32L585.36 396.28H596.04V398.2H581.2L593.68 383.64ZM576.48 397.56L586.84 385.44H577.32V383.52H591L578.4 398.24V400.08H596.04V402H576.48V397.56Z" fill="#FFDB01"/>
<path d="M1504.68 976.64V974.64H1488.32V972.72H1506.6V977.32L1496.36 989.28H1507.04V991.2H1492.2L1504.68 976.64ZM1487.48 990.56L1497.84 978.44H1488.32V976.52H1502L1489.4 991.24V993.08H1507.04V995H1487.48V990.56Z" fill="#FFDB01"/>
<path d="M1823.68 1204.64V1202.64H1807.32V1200.72H1825.6V1205.32L1815.36 1217.28H1826.04V1219.2H1811.2L1823.68 1204.64ZM1806.48 1218.56L1816.84 1206.44H1807.32V1204.52H1821L1808.4 1219.24V1221.08H1826.04V1223H1806.48V1218.56Z" fill="#FFDB01"/>
<path d="M849.68 901.64V899.64H833.32V897.72H851.6V902.32L841.36 914.28H852.04V916.2H837.2L849.68 901.64ZM832.48 915.56L842.84 903.44H833.32V901.52H847L834.4 916.24V918.08H852.04V920H832.48V915.56Z" fill="#5DA2D7"/>
<path d="M1614.68 639.64V637.64H1598.32V635.72H1616.6V640.32L1606.36 652.28H1617.04V654.2H1602.2L1614.68 639.64ZM1597.48 653.56L1607.84 641.44H1598.32V639.52H1612L1599.4 654.24V656.08H1617.04V658H1597.48V653.56Z" fill="#5DA2D7"/>
<path d="M1000.68 627.64V625.64H984.32V623.72H1002.6V628.32L992.36 640.28H1003.04V642.2H988.2L1000.68 627.64ZM983.48 641.56L993.84 629.44H984.32V627.52H998L985.4 642.24V644.08H1003.04V646H983.48V641.56Z" fill="#FBA6AE"/>
<path d="M467.68 -1.36V-3.36H451.32V-5.28H469.6V-0.680001L459.36 11.28H470.04V13.2H455.2L467.68 -1.36ZM450.48 12.56L460.84 0.439999H451.32V-1.48H465L452.4 13.24V15.08H470.04V17H450.48V12.56Z" fill="#5DA2D7"/>
<path d="M332.04 195.8H333.96V202.04H332.04V195.8ZM326.72 195.8H328.64V202.04H326.72V195.8ZM331.96 204.72H333.88V227H331.96V204.72ZM326.84 204.72H328.76V227H326.84V204.72Z" fill="#FFDB01"/>
<path d="M1388.04 170.8H1389.96V177.04H1388.04V170.8ZM1382.72 170.8H1384.64V177.04H1382.72V170.8ZM1387.96 179.72H1389.88V202H1387.96V179.72ZM1382.84 179.72H1384.76V202H1382.84V179.72Z" fill="#FFDB01"/>
<path d="M676.04 638.8H677.96V645.04H676.04V638.8ZM670.72 638.8H672.64V645.04H670.72V638.8ZM675.96 647.72H677.88V670H675.96V647.72ZM670.84 647.72H672.76V670H670.84V647.72Z" fill="#FFDB01"/>
<path d="M1457.04 1148.8H1458.96V1155.04H1457.04V1148.8ZM1451.72 1148.8H1453.64V1155.04H1451.72V1148.8ZM1456.96 1157.72H1458.88V1180H1456.96V1157.72ZM1451.84 1157.72H1453.76V1180H1451.84V1157.72Z" fill="#5DA2D7"/>
<path d="M116.04 724.8H117.96V731.04H116.04V724.8ZM110.72 724.8H112.64V731.04H110.72V724.8ZM115.96 733.72H117.88V756H115.96V733.72ZM110.84 733.72H112.76V756H110.84V733.72Z" fill="#5DA2D7"/>
</g>
<defs>
<clipPath id="clip0_33_3">
<rect width="1920" height="1248" fill="white"/>
</clipPath>
</defs>
</svg>
