<?xml version="1.0" standalone="no"?>
<!DOCTYPE svg PUBLIC "-//W3C//DTD SVG 20010904//EN"
 "http://www.w3.org/TR/2001/REC-SVG-20010904/DTD/svg10.dtd">
<svg version="1.0" xmlns="http://www.w3.org/2000/svg"
 width="260.000000pt" height="260.000000pt" viewBox="0 0 260.000000 260.000000"
 preserveAspectRatio="xMidYMid meet">
<metadata>
Created by potrace 1.14, written by Peter Selinger 2001-2017
</metadata>
<g transform="translate(0.000000,260.000000) scale(0.100000,-0.100000)"
fill="#000000" stroke="none">
<path d="M926 1924 c-10 -27 -7 -1400 4 -1428 8 -23 15 -26 59 -26 52 0 64 9
75 53 9 36 24 34 95 -11 79 -51 133 -66 226 -60 138 9 266 99 329 232 82 174
87 447 11 613 -32 71 -106 147 -174 180 -49 24 -68 27 -151 28 -87 0 -101 -3
-165 -33 -38 -18 -84 -44 -102 -58 -17 -13 -34 -24 -37 -24 -3 0 -6 124 -6
275 l0 275 -79 0 c-63 0 -80 -3 -85 -16z m545 -620 c26 -15 59 -43 73 -63 96
-142 80 -405 -34 -535 -90 -102 -239 -108 -377 -14 l-43 29 0 239 0 238 46 41
c72 63 137 90 218 91 55 0 77 -5 117 -26z"/>
</g>
</svg>
